<svg width="196" height="36" viewBox="0 0 196 36" fill="none" xmlns="http://www.w3.org/2000/svg">
<path d="M45.1734 25V10.4545H54.1933V12.3438H47.368V16.7756H53.547V18.6577H47.368V25H45.1734ZM56.1217 25V14.0909H58.2453V25H56.1217ZM57.1941 12.4077C56.8248 12.4077 56.5076 12.2846 56.2424 12.0384C55.982 11.7874 55.8518 11.4891 55.8518 11.1435C55.8518 10.7931 55.982 10.4948 56.2424 10.2486C56.5076 9.99763 56.8248 9.87216 57.1941 9.87216C57.5635 9.87216 57.8783 9.99763 58.1387 10.2486C58.4039 10.4948 58.5365 10.7931 58.5365 11.1435C58.5365 11.4891 58.4039 11.7874 58.1387 12.0384C57.8783 12.2846 57.5635 12.4077 57.1941 12.4077ZM62.6257 18.5227V25H60.5022V14.0909H62.5405V15.8665H62.6755C62.9264 15.2888 63.3194 14.8248 63.8544 14.4744C64.3942 14.1241 65.0737 13.9489 65.8928 13.9489C66.6362 13.9489 67.2872 14.1051 67.8459 14.4176C68.4046 14.7254 68.8379 15.1847 69.1456 15.7955C69.4534 16.4062 69.6073 17.1615 69.6073 18.0611V25H67.4837V18.3168C67.4837 17.526 67.2777 16.9081 66.8658 16.4631C66.4539 16.0133 65.8881 15.7884 65.1684 15.7884C64.6759 15.7884 64.238 15.8949 63.8544 16.108C63.4757 16.321 63.175 16.6335 62.9525 17.0455C62.7346 17.4527 62.6257 17.9451 62.6257 18.5227ZM75.03 25.2415C74.3387 25.2415 73.7137 25.1136 73.155 24.858C72.5963 24.5975 72.1536 24.2211 71.8269 23.7287C71.5049 23.2363 71.3439 22.6326 71.3439 21.9176C71.3439 21.3021 71.4623 20.7955 71.699 20.3977C71.9358 20 72.2554 19.6851 72.6579 19.4531C73.0603 19.2211 73.5101 19.0459 74.0073 18.9276C74.5044 18.8092 75.0111 18.7192 75.5272 18.6577C76.1806 18.5819 76.7109 18.5204 77.1181 18.473C77.5253 18.4209 77.8212 18.3381 78.0059 18.2244C78.1905 18.1108 78.2829 17.9261 78.2829 17.6705V17.6207C78.2829 17.0005 78.1077 16.5199 77.7573 16.179C77.4116 15.8381 76.8955 15.6676 76.209 15.6676C75.494 15.6676 74.9306 15.8262 74.5186 16.1435C74.1115 16.456 73.8297 16.804 73.6735 17.1875L71.6777 16.733C71.9145 16.0701 72.2601 15.535 72.7147 15.1278C73.174 14.7159 73.7019 14.4176 74.2985 14.233C74.8951 14.0436 75.5224 13.9489 76.1806 13.9489C76.6162 13.9489 77.0778 14.0009 77.5655 14.1051C78.0579 14.2045 78.5172 14.3892 78.9434 14.6591C79.3742 14.929 79.727 15.3149 80.0016 15.8168C80.2762 16.3139 80.4135 16.9602 80.4135 17.7557V25H78.3397V23.5085H78.2544C78.1171 23.7831 77.9112 24.053 77.6365 24.3182C77.3619 24.5833 77.0092 24.8035 76.5783 24.9787C76.1474 25.1539 75.6313 25.2415 75.03 25.2415ZM75.4917 23.5369C76.0788 23.5369 76.5807 23.4209 76.9973 23.1889C77.4187 22.9569 77.7383 22.6539 77.9561 22.2798C78.1787 21.901 78.29 21.4962 78.29 21.0653V19.6591C78.2142 19.7348 78.0674 19.8059 77.8496 19.8722C77.6365 19.9337 77.3927 19.9882 77.1181 20.0355C76.8435 20.0781 76.5759 20.1184 76.3155 20.1562C76.0551 20.1894 75.8373 20.2178 75.6621 20.2415C75.2502 20.2936 74.8738 20.3812 74.5329 20.5043C74.1967 20.6274 73.9268 20.8049 73.7232 21.0369C73.5243 21.2642 73.4249 21.5672 73.4249 21.946C73.4249 22.4716 73.619 22.8693 74.0073 23.1392C74.3955 23.4044 74.8903 23.5369 75.4917 23.5369ZM84.7656 18.5227V25H82.642V14.0909H84.6804V15.8665H84.8153C85.0663 15.2888 85.4592 14.8248 85.9943 14.4744C86.5341 14.1241 87.2135 13.9489 88.0326 13.9489C88.776 13.9489 89.427 14.1051 89.9858 14.4176C90.5445 14.7254 90.9777 15.1847 91.2855 15.7955C91.5932 16.4062 91.7471 17.1615 91.7471 18.0611V25H89.6235V18.3168C89.6235 17.526 89.4176 16.9081 89.0056 16.4631C88.5937 16.0133 88.0279 15.7884 87.3082 15.7884C86.8158 15.7884 86.3778 15.8949 85.9943 16.108C85.6155 16.321 85.3148 16.6335 85.0923 17.0455C84.8745 17.4527 84.7656 17.9451 84.7656 18.5227ZM98.5903 25.2202C97.5344 25.2202 96.6253 24.9811 95.863 24.5028C95.1055 24.0199 94.5231 23.3546 94.1159 22.5071C93.7087 21.6596 93.5051 20.6889 93.5051 19.5952C93.5051 18.4872 93.7134 17.5095 94.1301 16.6619C94.5467 15.8097 95.1339 15.1444 95.8914 14.6662C96.649 14.188 97.5415 13.9489 98.569 13.9489C99.3976 13.9489 100.136 14.1027 100.785 14.4105C101.434 14.7135 101.957 15.1397 102.355 15.6889C102.757 16.2382 102.996 16.8797 103.072 17.6136H101.005C100.891 17.1023 100.631 16.6619 100.224 16.2926C99.8214 15.9233 99.2816 15.7386 98.6045 15.7386C98.0127 15.7386 97.4942 15.8949 97.0491 16.2074C96.6088 16.5152 96.2655 16.9555 96.0193 17.5284C95.7731 18.0966 95.65 18.7689 95.65 19.5455C95.65 20.3409 95.7707 21.0275 96.0122 21.6051C96.2537 22.1828 96.5946 22.6302 97.0349 22.9474C97.48 23.2647 98.0032 23.4233 98.6045 23.4233C99.007 23.4233 99.3716 23.3499 99.6983 23.2031C100.03 23.0516 100.307 22.8362 100.529 22.5568C100.757 22.2775 100.915 21.9413 101.005 21.5483H103.072C102.996 22.2538 102.766 22.8835 102.383 23.4375C101.999 23.9915 101.486 24.4271 100.842 24.7443C100.203 25.0616 99.4521 25.2202 98.5903 25.2202ZM104.743 25V14.0909H106.866V25H104.743ZM105.815 12.4077C105.446 12.4077 105.129 12.2846 104.864 12.0384C104.603 11.7874 104.473 11.4891 104.473 11.1435C104.473 10.7931 104.603 10.4948 104.864 10.2486C105.129 9.99763 105.446 9.87216 105.815 9.87216C106.185 9.87216 106.499 9.99763 106.76 10.2486C107.025 10.4948 107.158 10.7931 107.158 11.1435C107.158 11.4891 107.025 11.7874 106.76 12.0384C106.499 12.2846 106.185 12.4077 105.815 12.4077ZM112.298 25.2415C111.607 25.2415 110.982 25.1136 110.423 24.858C109.864 24.5975 109.422 24.2211 109.095 23.7287C108.773 23.2363 108.612 22.6326 108.612 21.9176C108.612 21.3021 108.73 20.7955 108.967 20.3977C109.204 20 109.523 19.6851 109.926 19.4531C110.328 19.2211 110.778 19.0459 111.275 18.9276C111.772 18.8092 112.279 18.7192 112.795 18.6577C113.449 18.5819 113.979 18.5204 114.386 18.473C114.793 18.4209 115.089 18.3381 115.274 18.2244C115.458 18.1108 115.551 17.9261 115.551 17.6705V17.6207C115.551 17.0005 115.376 16.5199 115.025 16.179C114.68 15.8381 114.164 15.6676 113.477 15.6676C112.762 15.6676 112.199 15.8262 111.787 16.1435C111.379 16.456 111.098 16.804 110.941 17.1875L108.946 16.733C109.182 16.0701 109.528 15.535 109.983 15.1278C110.442 14.7159 110.97 14.4176 111.566 14.233C112.163 14.0436 112.79 13.9489 113.449 13.9489C113.884 13.9489 114.346 14.0009 114.833 14.1051C115.326 14.2045 115.785 14.3892 116.211 14.6591C116.642 14.929 116.995 15.3149 117.27 15.8168C117.544 16.3139 117.682 16.9602 117.682 17.7557V25H115.608V23.5085H115.522C115.385 23.7831 115.179 24.053 114.905 24.3182C114.63 24.5833 114.277 24.8035 113.846 24.9787C113.415 25.1539 112.899 25.2415 112.298 25.2415ZM112.76 23.5369C113.347 23.5369 113.849 23.4209 114.265 23.1889C114.687 22.9569 115.006 22.6539 115.224 22.2798C115.447 21.901 115.558 21.4962 115.558 21.0653V19.6591C115.482 19.7348 115.335 19.8059 115.118 19.8722C114.905 19.9337 114.661 19.9882 114.386 20.0355C114.111 20.0781 113.844 20.1184 113.583 20.1562C113.323 20.1894 113.105 20.2178 112.93 20.2415C112.518 20.2936 112.142 20.3812 111.801 20.5043C111.465 20.6274 111.195 20.8049 110.991 21.0369C110.792 21.2642 110.693 21.5672 110.693 21.946C110.693 22.4716 110.887 22.8693 111.275 23.1392C111.664 23.4044 112.158 23.5369 112.76 23.5369ZM122.034 10.4545V25H119.91V10.4545H122.034ZM141.235 15.1847H139.019C138.934 14.7112 138.775 14.2945 138.543 13.9347C138.311 13.5748 138.027 13.2694 137.691 13.0185C137.355 12.7675 136.978 12.5781 136.562 12.4503C136.15 12.3224 135.712 12.2585 135.248 12.2585C134.41 12.2585 133.659 12.4692 132.996 12.8906C132.338 13.312 131.817 13.9299 131.434 14.7443C131.055 15.5587 130.866 16.553 130.866 17.7273C130.866 18.911 131.055 19.91 131.434 20.7244C131.817 21.5388 132.34 22.1544 133.003 22.571C133.666 22.9877 134.412 23.196 135.241 23.196C135.7 23.196 136.135 23.1345 136.547 23.0114C136.964 22.8835 137.34 22.6965 137.677 22.4503C138.013 22.2041 138.297 21.9034 138.529 21.5483C138.766 21.1884 138.929 20.7765 139.019 20.3125L141.235 20.3196C141.116 21.0346 140.887 21.6927 140.546 22.294C140.21 22.8906 139.777 23.4067 139.246 23.8423C138.721 24.2732 138.119 24.607 137.442 24.8438C136.765 25.0805 136.027 25.1989 135.226 25.1989C133.967 25.1989 132.845 24.9006 131.86 24.304C130.875 23.7027 130.098 22.8433 129.53 21.7259C128.967 20.6084 128.685 19.2756 128.685 17.7273C128.685 16.1742 128.969 14.8414 129.537 13.7287C130.106 12.6113 130.882 11.7543 131.867 11.1577C132.852 10.5563 133.972 10.2557 135.226 10.2557C135.998 10.2557 136.718 10.367 137.385 10.5895C138.058 10.8073 138.661 11.1293 139.196 11.5554C139.732 11.9768 140.174 12.4929 140.525 13.1037C140.875 13.7098 141.112 14.4034 141.235 15.1847ZM147.686 25.2202C146.663 25.2202 145.77 24.9858 145.008 24.517C144.246 24.0483 143.654 23.3925 143.232 22.5497C142.811 21.7069 142.6 20.7221 142.6 19.5952C142.6 18.4635 142.811 17.474 143.232 16.6264C143.654 15.7789 144.246 15.1207 145.008 14.652C145.77 14.1832 146.663 13.9489 147.686 13.9489C148.708 13.9489 149.601 14.1832 150.363 14.652C151.125 15.1207 151.717 15.7789 152.139 16.6264C152.56 17.474 152.771 18.4635 152.771 19.5952C152.771 20.7221 152.56 21.7069 152.139 22.5497C151.717 23.3925 151.125 24.0483 150.363 24.517C149.601 24.9858 148.708 25.2202 147.686 25.2202ZM147.693 23.4375C148.356 23.4375 148.905 23.2623 149.34 22.9119C149.776 22.5616 150.098 22.0952 150.306 21.5128C150.519 20.9304 150.626 20.2888 150.626 19.5881C150.626 18.892 150.519 18.2528 150.306 17.6705C150.098 17.0833 149.776 16.6122 149.34 16.2571C148.905 15.902 148.356 15.7244 147.693 15.7244C147.025 15.7244 146.471 15.902 146.031 16.2571C145.595 16.6122 145.271 17.0833 145.058 17.6705C144.849 18.2528 144.745 18.892 144.745 19.5881C144.745 20.2888 144.849 20.9304 145.058 21.5128C145.271 22.0952 145.595 22.5616 146.031 22.9119C146.471 23.2623 147.025 23.4375 147.693 23.4375ZM156.665 18.5227V25H154.541V14.0909H156.58V15.8665H156.715C156.965 15.2888 157.358 14.8248 157.894 14.4744C158.433 14.1241 159.113 13.9489 159.932 13.9489C160.675 13.9489 161.326 14.1051 161.885 14.4176C162.444 14.7254 162.877 15.1847 163.185 15.7955C163.492 16.4062 163.646 17.1615 163.646 18.0611V25H161.523V18.3168C161.523 17.526 161.317 16.9081 160.905 16.4631C160.493 16.0133 159.927 15.7884 159.207 15.7884C158.715 15.7884 158.277 15.8949 157.894 16.108C157.515 16.321 157.214 16.6335 156.992 17.0455C156.774 17.4527 156.665 17.9451 156.665 18.5227ZM170.987 14.0909V15.7955H165.028V14.0909H170.987ZM166.626 11.4773H168.749V21.7969C168.749 22.2088 168.811 22.5189 168.934 22.7273C169.057 22.9309 169.216 23.0705 169.41 23.1463C169.609 23.2173 169.824 23.2528 170.056 23.2528C170.227 23.2528 170.376 23.241 170.504 23.2173C170.632 23.1937 170.731 23.1747 170.802 23.1605L171.186 24.9148C171.062 24.9621 170.887 25.0095 170.66 25.0568C170.433 25.1089 170.149 25.1373 169.808 25.142C169.249 25.1515 168.728 25.0521 168.245 24.8438C167.762 24.6354 167.372 24.3134 167.073 23.8778C166.775 23.4422 166.626 22.8954 166.626 22.2372V11.4773ZM172.736 25V14.0909H174.788V15.8239H174.902C175.101 15.2367 175.451 14.7751 175.953 14.4389C176.46 14.098 177.033 13.9276 177.672 13.9276C177.804 13.9276 177.961 13.9323 178.141 13.9418C178.325 13.9512 178.47 13.9631 178.574 13.9773V16.0085C178.489 15.9848 178.337 15.9588 178.119 15.9304C177.901 15.8973 177.684 15.8807 177.466 15.8807C176.964 15.8807 176.517 15.9872 176.124 16.2003C175.735 16.4086 175.428 16.6998 175.2 17.0739C174.973 17.4432 174.859 17.8646 174.859 18.3381V25H172.736ZM184.016 25.2202C182.993 25.2202 182.101 24.9858 181.339 24.517C180.576 24.0483 179.984 23.3925 179.563 22.5497C179.142 21.7069 178.931 20.7221 178.931 19.5952C178.931 18.4635 179.142 17.474 179.563 16.6264C179.984 15.7789 180.576 15.1207 181.339 14.652C182.101 14.1832 182.993 13.9489 184.016 13.9489C185.039 13.9489 185.931 14.1832 186.694 14.652C187.456 15.1207 188.048 15.7789 188.469 16.6264C188.891 17.474 189.101 18.4635 189.101 19.5952C189.101 20.7221 188.891 21.7069 188.469 22.5497C188.048 23.3925 187.456 24.0483 186.694 24.517C185.931 24.9858 185.039 25.2202 184.016 25.2202ZM184.023 23.4375C184.686 23.4375 185.235 23.2623 185.671 22.9119C186.107 22.5616 186.428 22.0952 186.637 21.5128C186.85 20.9304 186.956 20.2888 186.956 19.5881C186.956 18.892 186.85 18.2528 186.637 17.6705C186.428 17.0833 186.107 16.6122 185.671 16.2571C185.235 15.902 184.686 15.7244 184.023 15.7244C183.356 15.7244 182.802 15.902 182.361 16.2571C181.926 16.6122 181.601 17.0833 181.388 17.6705C181.18 18.2528 181.076 18.892 181.076 19.5881C181.076 20.2888 181.18 20.9304 181.388 21.5128C181.601 22.0952 181.926 22.5616 182.361 22.9119C182.802 23.2623 183.356 23.4375 184.023 23.4375ZM192.995 10.4545V25H190.872V10.4545H192.995Z" fill="#333333"/>
<path fill-rule="evenodd" clip-rule="evenodd" d="M6.78346 3.91119C12.3137 0.029604 19.7348 0.029604 25.2175 3.91119L20.8216 8.31349C17.7967 6.65668 14.1098 6.65668 11.1317 8.31349L6.73585 3.91119H6.78346ZM12.219 13.1893C14.2987 11.1066 17.7492 11.1066 19.8292 13.1893C21.9089 15.2721 21.9089 18.7276 19.8292 20.8107C17.7496 22.8938 14.299 22.8935 12.219 20.8107C10.1393 18.728 10.1393 15.2724 12.219 13.1893ZM29.0931 7.74581C32.969 13.2841 32.969 20.7162 29.0931 26.2069L24.6972 21.8046C26.3516 18.7752 26.3516 15.0829 24.6972 12.1004L29.0931 7.69812V7.74581ZM25.2172 30.0888C19.687 33.9704 12.2658 33.9704 6.78317 30.0888L11.179 25.6865C14.204 27.3433 17.8908 27.3433 20.8689 25.6865L25.2648 30.0888H25.2172ZM2.90692 26.2072C-0.968974 20.6689 -0.968974 13.2369 2.90692 7.74616L7.30277 12.1485C5.64839 15.1778 5.64839 18.8701 7.30277 21.8526L2.90692 26.2549V26.2072Z" fill="white"/>
</svg>
